HIERARCHY
ROOT SimulationBone
{
	OFFSET 0.000000 0.000000 0.000000
	CHANNELS 6 Xposition Yposition Zposition Zrotation Yrotation Xrotation 
	JOINT Hips
	{
		OFFSET 0.000000 0.000000 0.000000
		CHANNELS 6 Xposition Yposition Zposition Zrotation Yrotation Xrotation 
		JOINT LeftUpLeg
		{
			OFFSET 0.103457 1.857840 10.548497
			CHANNELS 3 Zrotation Yrotation Xrotation
			JOINT LeftLeg
			{
				OFFSET 43.499996 -0.000046 -0.000021
				CHANNELS 3 Zrotation Yrotation Xrotation
				JOINT LeftFoot
				{
					OFFSET 42.372200 0.000019 0.000010
					CHANNELS 3 Zrotation Yrotation Xrotation
					JOINT LeftToe
					{
						OFFSET 17.299992 -0.000004 -0.000006
						CHANNELS 3 Zrotation Yrotation Xrotation
						End Site
						{
							OFFSET 0.000000 0.000000 0.000000
						}
					}
				}
			}
		}
		JOINT RightUpLeg
		{
			OFFSET 0.103462 1.857830 -10.548500
			CHANNELS 3 Zrotation Yrotation Xrotation
			JOINT RightLeg
			{
				OFFSET 43.500050 -0.000008 0.000013
				CHANNELS 3 Zrotation Yrotation Xrotation
				JOINT RightFoot
				{
					OFFSET 42.372265 -0.000008 0.000010
					CHANNELS 3 Zrotation Yrotation Xrotation
					JOINT RightToe
					{
						OFFSET 17.299980 -0.000009 0.000011
						CHANNELS 3 Zrotation Yrotation Xrotation
						End Site
						{
							OFFSET 0.000000 0.000000 0.000000
						}
					}
				}
			}
		}
		JOINT Spine
		{
			OFFSET 6.901966 -2.603740 0.000004
			CHANNELS 3 Zrotation Yrotation Xrotation
			JOINT Spine1
			{
				OFFSET 12.588106 0.000010 -0.000001
				CHANNELS 3 Zrotation Yrotation Xrotation
				JOINT Spine2
				{
					OFFSET 12.343197 0.000001 -0.000010
					CHANNELS 3 Zrotation Yrotation Xrotation
					JOINT Neck
					{
						OFFSET 25.832893 -0.000006 0.000008
						CHANNELS 3 Zrotation Yrotation Xrotation
						JOINT Head
						{
							OFFSET 11.766615 -0.000006 -0.000000
							CHANNELS 3 Zrotation Yrotation Xrotation
							End Site
							{
								OFFSET 0.000000 0.000000 0.000000
							}
						}
					}
					JOINT LeftShoulder
					{
						OFFSET 19.745903 -1.480366 6.000110
						CHANNELS 3 Zrotation Yrotation Xrotation
						JOINT LeftArm
						{
							OFFSET 11.284130 -0.000010 -0.000024
							CHANNELS 3 Zrotation Yrotation Xrotation
							JOINT LeftForeArm
							{
								OFFSET 33.000046 0.000022 0.000031
								CHANNELS 3 Zrotation Yrotation Xrotation
								JOINT LeftHand
								{
									OFFSET 25.200022 0.000011 0.000002
									CHANNELS 3 Zrotation Yrotation Xrotation
									End Site
									{
										OFFSET 0.000000 0.000000 0.000000
									}
								}
							}
						}
					}
					JOINT RightShoulder
					{
						OFFSET 19.746103 -1.480371 -6.000066
						CHANNELS 3 Zrotation Yrotation Xrotation
						JOINT RightArm
						{
							OFFSET 11.284146 -0.000005 -0.000007
							CHANNELS 3 Zrotation Yrotation Xrotation
							JOINT RightForeArm
							{
								OFFSET 33.000076 0.000011 0.000008
								CHANNELS 3 Zrotation Yrotation Xrotation
								JOINT RightHand
								{
									OFFSET 25.199783 0.000146 0.000422
									CHANNELS 3 Zrotation Yrotation Xrotation
									End Site
									{
										OFFSET 0.000000 0.000000 0.000000
									}
								}
							}
						}
					}
				}
			}
		}
	}
}
MOTION
Frames: 14
Frame Time: 0.033333
-316.190202 0.000000 -124.406876 180.000000 0.524264 180.000000 0.812461 89.297607 2.275472 93.322438 4.620061 176.549152 168.777280 -21.222793 173.356731 -68.505746 0.779160 4.645852 49.674572 -13.738410 -18.089708 21.454553 0.003091 -0.000001 166.589106 -4.029007 -178.813915 -24.784229 -0.067899 1.847885 83.385565 -0.416133 4.295161 21.454560 -0.003109 -0.000018 6.458868 0.515702 -0.862160 2.897155 1.052354 -1.711461 2.579140 1.042138 -1.717782 14.830284 -6.050955 -27.843133 -23.083927 9.549687 -34.021203 -152.060788 -82.676380 -29.833583 -7.159031 60.977463 28.572978 -38.318451 -15.426872 1.442456 7.535253 -7.397771 2.693047 -162.755389 75.423757 19.057818 1.999974 -58.895178 -23.633944 -34.107120 12.057699 -1.151290 8.123497 6.145332 0.229895 
-316.142035 0.000000 -123.376262 180.000000 2.689041 180.000000 0.689035 89.076309 2.142467 93.174280 4.505874 176.880796 168.472066 -22.059296 173.581786 -69.461111 0.630213 7.800862 58.770725 -13.696329 -16.987181 21.454558 0.003092 -0.000003 165.480703 -3.414902 -179.438031 -25.696864 0.020526 1.034961 83.505025 0.325965 5.111685 21.454555 -0.003109 -0.000017 6.423042 0.506156 -0.831131 2.825918 1.031997 -1.649971 2.507912 1.022153 -1.656170 14.457407 -5.946243 -27.646543 -22.956314 9.523473 -33.777505 -151.332089 -82.475354 -30.576127 -8.314466 60.351661 27.263660 -39.971800 -16.135951 1.531127 7.235868 -7.395207 3.031861 -163.076627 75.351214 18.729577 2.722024 -58.955358 -24.690654 -33.320914 11.805781 -1.117749 8.507844 5.834347 0.405079 
-316.043852 0.000000 -122.230886 180.000000 4.805470 180.000000 0.667164 89.000771 2.076724 92.963316 4.140683 176.977023 168.395937 -22.398697 172.992518 -69.036479 0.500350 7.319623 67.604236 -10.471483 -13.761860 21.454550 0.003093 0.000001 164.572985 -2.635802 179.951019 -26.033275 -0.075368 0.096113 83.366605 1.190488 6.028208 21.454560 -0.003108 -0.000018 6.360147 0.439898 -0.767289 2.701541 0.897153 -1.524368 2.383534 0.888069 -1.529754 14.218353 -5.924528 -27.417237 -22.954200 9.579454 -33.558321 -150.925461 -82.197871 -30.995282 -8.585030 60.022118 25.924009 -41.935418 -16.441662 1.604013 7.038989 -6.973083 5.050692 -163.983703 75.286518 17.801237 3.575530 -59.013053 -25.706045 -32.562599 11.575809 -1.086666 8.616280 4.935247 -0.513495 
-315.893819 0.000000 -120.990746 180.000000 6.883989 180.000000 0.729884 88.995377 2.008653 92.764076 3.679269 177.019631 168.822455 -22.184803 172.135124 -66.274575 0.554622 3.553684 71.840975 -5.824831 -9.874083 21.454553 0.003093 0.000000 163.839190 -1.755798 179.477878 -25.982991 -0.320413 -0.928120 83.115903 2.181205 7.180502 21.454558 -0.003110 -0.000017 6.303860 0.353574 -0.703663 2.590522 0.722401 -1.399441 2.272481 0.714076 -1.403775 14.055289 -6.082846 -27.205007 -23.020925 9.788517 -33.444878 -149.952787 -81.963465 -31.986555 -8.292510 60.033524 25.453190 -43.664061 -16.497470 1.656319 6.286849 -7.684042 6.218682 -165.414505 75.237361 16.336173 4.309454 -58.937812 -26.379744 -31.930151 11.182249 -1.047931 8.698442 4.046650 -1.504590 
-315.692931 0.000000 -119.646390 180.000000 8.933137 180.000000 0.791083 88.939240 1.829058 92.495687 3.325742 177.530150 169.284750 -21.222308 172.791014 -61.442100 1.179698 0.200034 76.087351 -2.158945 -6.897426 21.454555 0.003092 -0.000000 163.035864 -0.679901 179.173538 -25.853606 -0.371527 -1.800053 82.903853 3.125259 8.577258 21.454560 -0.003109 -0.000017 6.241196 0.318330 -0.673070 2.465755 0.650528 -1.339391 2.147749 0.642562 -1.343296 13.899870 -6.090811 -27.190322 -23.152229 9.649725 -33.392320 -150.404577 -81.976668 -31.528795 -7.837430 60.399978 25.834844 -45.058355 -16.669918 1.708278 5.609114 -8.035012 5.558286 -165.206703 75.202637 16.549157 4.979789 -58.889843 -26.965534 -31.764194 10.886912 -1.025296 8.700783 3.497643 -2.291007 
-315.443799 0.000000 -118.194803 180.000000 10.958816 180.000000 0.956157 88.850082 1.657554 92.426236 3.131856 178.086955 170.659421 -20.160403 175.061382 -54.268578 1.838162 -0.363753 77.109147 -1.592486 -6.494590 21.454557 0.003092 -0.000001 162.490651 0.272003 178.495656 -25.589433 -0.264638 -2.422393 82.547119 3.867243 9.779630 21.454560 -0.003108 -0.000017 6.228754 0.354351 -0.645195 2.440669 0.721840 -1.282985 2.122628 0.714215 -1.287316 13.938739 -6.328915 -27.218842 -23.573116 9.528594 -33.453351 -151.452574 -81.829150 -30.471745 -7.419364 60.887059 26.397848 -46.000351 -16.898732 1.751507 5.035003 -6.916450 6.829550 -164.338900 75.648334 17.435173 6.001254 -59.216975 -28.004366 -32.194964 11.081838 -1.046843 8.814858 2.877311 -2.676185 
-315.149854 0.000000 -116.640235 180.000000 12.967003 180.000000 1.191382 88.797867 1.596953 92.540753 2.687126 178.486434 172.614658 -18.615599 178.908186 -46.972068 2.170850 2.394826 74.252332 -2.870085 -3.701808 21.454551 0.003093 -0.000001 162.112149 1.375596 177.997435 -25.214082 -0.316482 -3.243139 82.008777 4.743955 10.835471 21.454562 -0.003108 -0.000017 6.269075 0.334959 -0.622049 2.521680 0.683018 -1.236849 2.203626 0.675673 -1.240947 13.786090 -6.770578 -27.095041 -23.687205 9.567320 -33.394718 -150.608321 -81.421189 -31.338411 -7.475997 61.321514 26.924691 -46.581245 -16.863051 1.766763 4.857271 -6.002850 8.474665 -164.160400 76.184750 17.614197 6.982433 -59.483988 -29.110823 -33.003030 11.583853 -1.096498 8.626676 2.537670 -2.712894 
-314.810933 0.000000 -114.995756 180.000000 14.964344 180.000000 1.198541 88.259331 1.322202 92.583693 2.954512 178.902765 174.328025 -18.407805 -174.826601 -44.647885 0.283135 4.093615 77.170319 -5.367158 -8.860927 21.454555 0.003092 -0.000002 160.755879 1.951297 177.751712 -26.134715 -0.407806 -4.139611 81.844866 5.685644 12.020712 21.454558 -0.003108 -0.000018 6.324622 0.445741 -0.566154 2.632038 0.903905 -1.122281 2.313971 0.897251 -1.127717 13.531091 -6.711683 -26.934846 -23.703463 9.426124 -33.167286 -150.049434 -81.256705 -31.909483 -7.595767 61.748154 27.872108 -46.725191 -16.824674 1.768624 4.395082 -5.217869 8.997745 -164.300515 76.051254 17.471708 7.494602 -58.955365 -29.787285 -33.956921 12.073648 -1.149017 8.386190 2.580724 -2.640825 
-314.427866 0.000000 -113.271036 180.000000 16.957921 180.000000 1.162143 87.674393 1.082367 92.568142 2.872484 178.986962 176.414183 -17.700200 -172.156161 -42.486259 -2.026668 3.469266 82.888587 -4.405344 -9.086823 21.454548 0.003093 -0.000001 159.019385 2.746993 177.172621 -27.280187 -0.466354 -5.116219 81.616219 6.670933 13.091430 21.454557 -0.003108 -0.000018 6.366538 0.440004 -0.439863 2.716935 0.889937 -0.869524 2.398842 0.884810 -0.874880 13.527119 -6.015660 -26.924179 -24.040195 8.954119 -32.945254 -151.286341 -81.371192 -30.652830 -6.989480 62.100674 29.112138 -46.900279 -16.914692 1.779947 4.808453 -3.192186 10.452559 -163.858697 75.699772 17.926223 7.730550 -58.513971 -29.792940 -34.957933 12.373911 -1.190929 8.209533 3.245691 -2.413396 
-314.002715 0.000000 -111.471149 180.000000 18.954937 180.000000 1.105874 87.164879 0.913790 92.415009 2.371299 179.039884 178.885100 -16.727996 -174.820809 -39.184467 -2.215155 3.327879 88.292899 -3.967359 -9.938900 21.454545 0.003093 -0.000001 157.154470 3.963396 176.860167 -28.099333 -0.507611 -6.371450 81.143706 7.832558 13.917859 21.454558 -0.003108 -0.000017 6.377527 0.345752 -0.405224 2.739787 0.700749 -0.802329 2.421685 0.696032 -0.806547 13.832035 -5.668457 -26.872870 -24.477153 8.948221 -32.921092 -151.845610 -81.367552 -30.086082 -5.594279 62.289706 30.730893 -47.214533 -16.885887 1.787715 5.333650 -1.134125 12.644990 -164.036186 75.526593 17.745747 7.793117 -58.443060 -28.821674 -36.040805 12.572581 -1.228866 8.042997 3.802725 -2.630716 
-313.535024 0.000000 -109.605240 180.000000 20.962621 180.000000 0.915820 86.622917 0.625950 92.025195 1.737522 179.801314 -179.512138 -15.875593 179.456226 -36.164919 -1.782485 4.561949 93.450662 -4.262144 -9.438748 21.454551 0.003093 0.000000 155.106834 5.641402 177.153209 -28.641700 -0.616785 -7.730084 80.583637 9.099802 14.761272 21.454557 -0.003109 -0.000016 6.371039 0.251624 -0.516929 2.726930 0.515049 -1.027922 2.408871 0.508972 -1.031011 14.129422 -5.439061 -26.990187 -25.021491 8.969094 -33.111774 -153.643261 -81.594328 -28.258738 -4.059451 62.484722 32.305200 -47.390687 -16.802453 1.787634 5.925962 0.727883 15.043066 -163.120613 75.546557 18.682861 7.786285 -58.620706 -28.085547 -37.343738 12.986721 -1.287030 7.732967 4.355499 -2.863479 
-313.028299 0.000000 -107.689053 180.000000 22.988177 180.000000 0.520812 86.275177 0.207310 91.368616 0.640137 -178.699136 -179.242920 -13.951993 173.256259 -33.932014 -0.752047 5.805225 97.266982 -4.616284 -7.722767 21.454553 0.003094 0.000001 153.310918 7.745306 176.861998 -28.113484 -0.833604 -8.323461 79.395560 9.848309 15.317281 21.454557 -0.003108 -0.000017 6.355238 0.055975 -0.775079 2.696750 0.129566 -1.548672 2.378776 0.120346 -1.549422 13.961863 -5.302051 -27.257974 -25.088379 8.789932 -33.311902 -154.005630 -81.973683 -27.882803 -3.577754 62.639856 33.529993 -47.044168 -16.716391 1.771237 6.481761 2.106261 16.635218 -161.873421 75.439275 19.960639 7.649741 -58.851382 -27.190964 -38.800167 13.269623 -1.341722 7.271229 4.826996 -2.894574 
-312.488503 0.000000 -105.732707 180.000000 25.039254 180.000000 0.016710 86.224579 -0.224148 90.826409 -0.828280 -176.965925 -179.760238 -10.316102 171.920929 -32.313164 0.405150 5.047774 99.075125 -3.907267 -6.661345 21.454553 0.003092 -0.000000 152.537891 10.017003 175.056492 -25.874112 -0.775404 -7.995252 77.396350 10.021819 15.702420 21.454557 -0.003107 -0.000017 6.415832 -0.230761 -1.050897 2.822852 -0.436381 -2.107009 2.504979 -0.448961 -2.104344 14.010283 -5.480563 -27.668360 -25.261518 9.101981 -33.916322 -154.765680 -81.962120 -27.113370 -4.388113 62.143677 34.286932 -46.347236 -16.604147 1.742524 7.116781 2.455507 17.065494 -161.446206 75.273917 20.399834 7.810309 -59.165182 -26.405221 -40.118165 13.465670 -1.388566 6.672157 5.300893 -2.482043 
-311.926361 0.000000 -103.749616 180.000000 27.124241 180.000000 -0.594329 86.321129 -0.676664 90.211879 -2.456812 -174.971411 178.951448 -6.016099 175.768006 -31.634701 0.251991 2.182106 99.609744 -1.883535 -5.782669 21.454551 0.003090 0.000000 152.618446 12.483795 174.451842 -21.984067 -1.455737 -7.676197 74.691076 10.443304 16.387582 21.454560 -0.003109 -0.000018 6.525003 -0.598813 -1.267792 3.050296 -1.164657 -2.550772 2.732474 -1.179898 -2.543701 14.100377 -5.000078 -28.200813 -25.688415 9.223996 -34.550003 -156.947078 -82.242328 -24.898942 -6.274660 61.458971 34.271939 -45.543404 -16.489982 1.710811 8.033517 2.813852 17.008747 -161.349791 74.712352 20.505118 8.640241 -59.548676 -25.775577 -41.331227 13.691941 -1.435718 6.115002 5.993981 -2.547382 
